<svg width="300" height="150">
    <rect width="100%" height="100%" fill="#F3F3F7" />

<line x1="70.0" y1="75.0" x2="102.4" y2="98.5"
    stroke="#663399" stroke-width="2" />
<line x1="102.4" y1="98.5" x2="102.4" y2="51.5"
    stroke="#663399" stroke-width="2" />
<line x1="102.4" y1="51.5" x2="70.0" y2="75.0"
    stroke="#663399" stroke-width="2" />
<line x1="70.0" y1="75.0" x2="102.4" y2="51.5"
    stroke="#663399" stroke-width="2" />
<line x1="102.4" y1="51.5" x2="57.6" y2="37.0"
    stroke="#663399" stroke-width="2" />
<line x1="57.6" y1="37.0" x2="70.0" y2="75.0"
    stroke="#663399" stroke-width="2" />
<line x1="70.0" y1="75.0" x2="57.6" y2="37.0"
    stroke="#663399" stroke-width="2" />
<line x1="57.6" y1="37.0" x2="30.0" y2="75.0"
    stroke="#663399" stroke-width="2" />
<line x1="30.0" y1="75.0" x2="70.0" y2="75.0"
    stroke="#663399" stroke-width="2" />
<line x1="70.0" y1="75.0" x2="30.0" y2="75.0"
    stroke="#663399" stroke-width="2" />
<line x1="30.0" y1="75.0" x2="57.6" y2="113.0"
    stroke="#663399" stroke-width="2" />
<line x1="57.6" y1="113.0" x2="70.0" y2="75.0"
    stroke="#663399" stroke-width="2" />
<line x1="70.0" y1="75.0" x2="57.6" y2="113.0"
    stroke="#663399" stroke-width="2" />
<line x1="57.6" y1="113.0" x2="102.4" y2="98.5"
    stroke="#663399" stroke-width="2" />
<line x1="102.4" y1="98.5" x2="70.0" y2="75.0"
    stroke="#663399" stroke-width="2" />
<line x1="150.0" y1="75.0" x2="184.6" y2="95.0"
    stroke="#663399" stroke-width="2" />
<line x1="184.6" y1="95.0" x2="184.6" y2="55.0"
    stroke="#663399" stroke-width="2" />
<line x1="184.6" y1="55.0" x2="150.0" y2="75.0"
    stroke="#663399" stroke-width="2" />
<line x1="150.0" y1="75.0" x2="184.6" y2="55.0"
    stroke="#663399" stroke-width="2" />
<line x1="184.6" y1="55.0" x2="150.0" y2="35.0"
    stroke="#663399" stroke-width="2" />
<line x1="150.0" y1="35.0" x2="150.0" y2="75.0"
    stroke="#663399" stroke-width="2" />
<line x1="150.0" y1="75.0" x2="150.0" y2="35.0"
    stroke="#663399" stroke-width="2" />
<line x1="150.0" y1="35.0" x2="115.4" y2="55.0"
    stroke="#663399" stroke-width="2" />
<line x1="115.4" y1="55.0" x2="150.0" y2="75.0"
    stroke="#663399" stroke-width="2" />
<line x1="150.0" y1="75.0" x2="115.4" y2="55.0"
    stroke="#663399" stroke-width="2" />
<line x1="115.4" y1="55.0" x2="115.4" y2="95.0"
    stroke="#663399" stroke-width="2" />
<line x1="115.4" y1="95.0" x2="150.0" y2="75.0"
    stroke="#663399" stroke-width="2" />
<line x1="150.0" y1="75.0" x2="115.4" y2="95.0"
    stroke="#663399" stroke-width="2" />
<line x1="115.4" y1="95.0" x2="150.0" y2="115.0"
    stroke="#663399" stroke-width="2" />
<line x1="150.0" y1="115.0" x2="150.0" y2="75.0"
    stroke="#663399" stroke-width="2" />
<line x1="150.0" y1="75.0" x2="150.0" y2="115.0"
    stroke="#663399" stroke-width="2" />
<line x1="150.0" y1="115.0" x2="184.6" y2="95.0"
    stroke="#663399" stroke-width="2" />
<line x1="184.6" y1="95.0" x2="150.0" y2="75.0"
    stroke="#663399" stroke-width="2" />
<line x1="230.0" y1="75.0" x2="266.0" y2="92.4"
    stroke="#663399" stroke-width="2" />
<line x1="266.0" y1="92.4" x2="266.0" y2="57.6"
    stroke="#663399" stroke-width="2" />
<line x1="266.0" y1="57.6" x2="230.0" y2="75.0"
    stroke="#663399" stroke-width="2" />
<line x1="230.0" y1="75.0" x2="266.0" y2="57.6"
    stroke="#663399" stroke-width="2" />
<line x1="266.0" y1="57.6" x2="238.9" y2="36.0"
    stroke="#663399" stroke-width="2" />
<line x1="238.9" y1="36.0" x2="230.0" y2="75.0"
    stroke="#663399" stroke-width="2" />
<line x1="230.0" y1="75.0" x2="238.9" y2="36.0"
    stroke="#663399" stroke-width="2" />
<line x1="238.9" y1="36.0" x2="205.1" y2="43.7"
    stroke="#663399" stroke-width="2" />
<line x1="205.1" y1="43.7" x2="230.0" y2="75.0"
    stroke="#663399" stroke-width="2" />
<line x1="230.0" y1="75.0" x2="205.1" y2="43.7"
    stroke="#663399" stroke-width="2" />
<line x1="205.1" y1="43.7" x2="190.0" y2="75.0"
    stroke="#663399" stroke-width="2" />
<line x1="190.0" y1="75.0" x2="230.0" y2="75.0"
    stroke="#663399" stroke-width="2" />
<line x1="230.0" y1="75.0" x2="190.0" y2="75.0"
    stroke="#663399" stroke-width="2" />
<line x1="190.0" y1="75.0" x2="205.1" y2="106.3"
    stroke="#663399" stroke-width="2" />
<line x1="205.1" y1="106.3" x2="230.0" y2="75.0"
    stroke="#663399" stroke-width="2" />
<line x1="230.0" y1="75.0" x2="205.1" y2="106.3"
    stroke="#663399" stroke-width="2" />
<line x1="205.1" y1="106.3" x2="238.9" y2="114.0"
    stroke="#663399" stroke-width="2" />
<line x1="238.9" y1="114.0" x2="230.0" y2="75.0"
    stroke="#663399" stroke-width="2" />
<line x1="230.0" y1="75.0" x2="238.9" y2="114.0"
    stroke="#663399" stroke-width="2" />
<line x1="238.9" y1="114.0" x2="266.0" y2="92.4"
    stroke="#663399" stroke-width="2" />
<line x1="266.0" y1="92.4" x2="230.0" y2="75.0"
    stroke="#663399" stroke-width="2" />

<g transform="rotate(270.0,230.0,75.0) translate(230.0, 75.0)">
    <circle stroke="#63A375" stroke-width="2" fill="transparent" r="5.5" cx="0" cy="0"/>
    <polygon points="0,12 2,9 -2,9" style="fill:#63A375;stroke:#63A375;stroke-width:2"/>
</g>

</svg>